<svg width="60" height="63" viewBox="0 0 60 63" fill="none" xmlns="http://www.w3.org/2000/svg">
<g filter="url(#filter0_d_178_10)">
<path d="M30.661 7.51247C39.7956 7.86779 46.7769 15.3415 46.4915 24.1607C46.3953 27.1348 45.0473 30.451 43.2193 33.9103C42.363 35.5307 41.4279 37.1358 40.5054 38.7192C40.4534 38.8084 40.4014 38.8977 40.3495 38.9868C39.3849 40.643 38.4352 42.2826 37.6558 43.8291C35.9913 47.1315 34.4057 50.2354 33.0427 52.8849C31.7599 55.3785 28.2395 55.3785 26.9567 52.8849C25.5937 50.2354 24.0082 47.1315 22.3437 43.8291C21.5642 42.2826 20.6144 40.6429 19.6497 38.9868C19.5976 38.8973 19.5454 38.8078 19.4932 38.7183C18.5707 37.1351 17.6357 35.5304 16.7794 33.9103C14.9512 30.451 13.6034 27.1349 13.5079 24.161C13.2142 15.0129 21.1789 7.14362 30.661 7.51247Z" stroke="#EEEEEE" stroke-width="3" stroke-linecap="round" stroke-linejoin="round"/>
<circle cx="30" cy="24" r="6.5" stroke="#EEEEEE" stroke-width="3"/>
</g>
<defs>
<filter id="filter0_d_178_10" x="-7" y="0" width="74" height="74.2551" filterUnits="userSpaceOnUse" color-interpolation-filters="sRGB">
<feFlood flood-opacity="0" result="BackgroundImageFix"/>
<feColorMatrix in="SourceAlpha" type="matrix" values="0 0 0 0 0 0 0 0 0 0 0 0 0 0 0 0 0 0 127 0" result="hardAlpha"/>
<feOffset dy="6"/>
<feGaussianBlur stdDeviation="6"/>
<feComposite in2="hardAlpha" operator="out"/>
<feColorMatrix type="matrix" values="0 0 0 0 0 0 0 0 0 0 0 0 0 0 0 0 0 0 0.25 0"/>
<feBlend mode="normal" in2="BackgroundImageFix" result="effect1_dropShadow_178_10"/>
<feBlend mode="normal" in="SourceGraphic" in2="effect1_dropShadow_178_10" result="shape"/>
</filter>
</defs>
</svg>
